<svg xmlns="http://www.w3.org/2000/svg" viewBox="0 0 1200 820" width="1200" height="820">
<style><![CDATA[
text { font-family: 'Helvetica Neue', Helvetica, Arial, 'PingFang SC', 'Microsoft YaHei', sans-serif; }
]]></style>
<defs>
  <filter id="softShadow" x="-20%" y="-20%" width="140%" height="140%">
    <feDropShadow dx="0" dy="2" stdDeviation="2" flood-color="#111827" flood-opacity="0.10"/>
  </filter>
</defs>
<rect x="0" y="0" width="1200" height="820" rx="0" ry="0" fill="#ffffff" stroke="none" stroke-width="0" />
<text x="40" y="43" font-size="24" font-weight="700" fill="#111827" text-anchor="start" >DGX H100 SuperPOD：一个 Scaling Unit（SU）长什么样</text>
<text x="40" y="69" font-size="13.5" font-weight="400" fill="#4b5563" text-anchor="start" >1 个 SU 是可复制的训练网络积木：32 台 DGX H100，8 条 Rail，256 张 H100 GPU。</text>
<rect x="46" y="96" width="1108" height="132" rx="12" ry="12" fill="#f9fafb" stroke="#cbd5e1" stroke-width="1.4" stroke-dasharray="7 5"/>
<text x="68" y="126" font-size="16" font-weight="700" fill="#111827" text-anchor="start" >Pod 级 Spine 层（连接多个 SU）</text>
<text x="68" y="148" font-size="12.5" font-weight="400" fill="#6b7280" text-anchor="start" >单个 SU 的 8 个 Leaf 上联到 Spine；多个 SU 通过这层 Spine 横向拼成 SuperPOD。</text>
<rect x="192" y="166" width="116" height="38" rx="7" ry="7" fill="#ffffff" stroke="#94a3b8" stroke-width="1.3" />
<line x1="204" y1="185" x2="236" y2="185" stroke="#64748b" stroke-width="1.4" stroke-linecap="round" opacity="1" />
<line x1="220" y1="175" x2="220" y2="195" stroke="#64748b" stroke-width="1.4" stroke-linecap="round" opacity="1" />
<circle cx="204" cy="185" r="2.6" fill="#64748b"/>
<circle cx="236" cy="185" r="2.6" fill="#64748b"/>
<circle cx="220" cy="175" r="2.6" fill="#64748b"/>
<circle cx="220" cy="195" r="2.6" fill="#64748b"/>
<text x="260" y="190" font-size="12.5" font-weight="600" fill="#334155" text-anchor="start" >Spine 1</text>
<rect x="392" y="166" width="116" height="38" rx="7" ry="7" fill="#ffffff" stroke="#94a3b8" stroke-width="1.3" />
<line x1="404" y1="185" x2="436" y2="185" stroke="#64748b" stroke-width="1.4" stroke-linecap="round" opacity="1" />
<line x1="420" y1="175" x2="420" y2="195" stroke="#64748b" stroke-width="1.4" stroke-linecap="round" opacity="1" />
<circle cx="404" cy="185" r="2.6" fill="#64748b"/>
<circle cx="436" cy="185" r="2.6" fill="#64748b"/>
<circle cx="420" cy="175" r="2.6" fill="#64748b"/>
<circle cx="420" cy="195" r="2.6" fill="#64748b"/>
<text x="460" y="190" font-size="12.5" font-weight="600" fill="#334155" text-anchor="start" >Spine 2</text>
<rect x="592" y="166" width="116" height="38" rx="7" ry="7" fill="#ffffff" stroke="#94a3b8" stroke-width="1.3" />
<line x1="604" y1="185" x2="636" y2="185" stroke="#64748b" stroke-width="1.4" stroke-linecap="round" opacity="1" />
<line x1="620" y1="175" x2="620" y2="195" stroke="#64748b" stroke-width="1.4" stroke-linecap="round" opacity="1" />
<circle cx="604" cy="185" r="2.6" fill="#64748b"/>
<circle cx="636" cy="185" r="2.6" fill="#64748b"/>
<circle cx="620" cy="175" r="2.6" fill="#64748b"/>
<circle cx="620" cy="195" r="2.6" fill="#64748b"/>
<text x="660" y="190" font-size="12.5" font-weight="600" fill="#334155" text-anchor="start" >Spine 3</text>
<rect x="792" y="166" width="116" height="38" rx="7" ry="7" fill="#ffffff" stroke="#94a3b8" stroke-width="1.3" />
<line x1="804" y1="185" x2="836" y2="185" stroke="#64748b" stroke-width="1.4" stroke-linecap="round" opacity="1" />
<line x1="820" y1="175" x2="820" y2="195" stroke="#64748b" stroke-width="1.4" stroke-linecap="round" opacity="1" />
<circle cx="804" cy="185" r="2.6" fill="#64748b"/>
<circle cx="836" cy="185" r="2.6" fill="#64748b"/>
<circle cx="820" cy="175" r="2.6" fill="#64748b"/>
<circle cx="820" cy="195" r="2.6" fill="#64748b"/>
<text x="860" y="190" font-size="12.5" font-weight="600" fill="#334155" text-anchor="start" >Spine 4</text>
<rect x="46" y="254" width="1108" height="514" rx="14" ry="14" fill="#f8fafc" stroke="#2563eb" stroke-width="1.6" />
<text x="68" y="286" font-size="18" font-weight="700" fill="#1d4ed8" text-anchor="start" >Scaling Unit（SU）边界</text>
<text x="68" y="309" font-size="12.5" font-weight="400" fill="#475569" text-anchor="start" >包含：32 台 DGX H100 服务器 + 8 台 Rail Leaf。Spine 通常是 Pod 级共享上联层。</text>
<rect x="602" y="270" width="140" height="28" rx="14" ry="14" fill="#eff6ff" stroke="#2563eb" stroke-width="1.2" opacity="0.98"/>
<text x="672.0" y="289" font-size="12.5" font-weight="600" fill="#2563eb" text-anchor="middle" >32 台服务器</text>
<rect x="758" y="270" width="118" height="28" rx="14" ry="14" fill="#f0fdf4" stroke="#16a34a" stroke-width="1.2" opacity="0.98"/>
<text x="817.0" y="289" font-size="12.5" font-weight="600" fill="#16a34a" text-anchor="middle" >256 GPU</text>
<rect x="892" y="270" width="98" height="28" rx="14" ry="14" fill="#faf5ff" stroke="#9333ea" stroke-width="1.2" opacity="0.98"/>
<text x="941.0" y="289" font-size="12.5" font-weight="600" fill="#9333ea" text-anchor="middle" >8 Rail</text>
<rect x="1006" y="270" width="118" height="28" rx="14" ry="14" fill="#fff7ed" stroke="#ea580c" stroke-width="1.2" opacity="0.98"/>
<text x="1065.0" y="289" font-size="12.5" font-weight="600" fill="#ea580c" text-anchor="middle" >102.4T/方向</text>
<text x="68" y="354" font-size="15.5" font-weight="700" fill="#111827" text-anchor="start" >8 条 Rail / 8 台 Leaf：每个 Leaf 只负责一种编号的 NIC</text>
<path d="M 260.0,342 C 260.0,270 250,244 250,204" fill="none" stroke="#64748b" stroke-width="1.2" stroke-linecap="round" stroke-linejoin="round" opacity="0.45" />
<path d="M 372.0,342 C 372.0,270 250,244 250,204" fill="none" stroke="#64748b" stroke-width="1.2" stroke-linecap="round" stroke-linejoin="round" opacity="0.45" />
<path d="M 484.0,342 C 484.0,270 450,244 450,204" fill="none" stroke="#64748b" stroke-width="1.2" stroke-linecap="round" stroke-linejoin="round" opacity="0.45" />
<path d="M 596.0,342 C 596.0,270 450,244 450,204" fill="none" stroke="#64748b" stroke-width="1.2" stroke-linecap="round" stroke-linejoin="round" opacity="0.45" />
<path d="M 708.0,342 C 708.0,270 650,244 650,204" fill="none" stroke="#64748b" stroke-width="1.2" stroke-linecap="round" stroke-linejoin="round" opacity="0.45" />
<path d="M 820.0,342 C 820.0,270 650,244 650,204" fill="none" stroke="#64748b" stroke-width="1.2" stroke-linecap="round" stroke-linejoin="round" opacity="0.45" />
<path d="M 932.0,342 C 932.0,270 850,244 850,204" fill="none" stroke="#64748b" stroke-width="1.2" stroke-linecap="round" stroke-linejoin="round" opacity="0.45" />
<path d="M 1044.0,342 C 1044.0,270 850,244 850,204" fill="none" stroke="#64748b" stroke-width="1.2" stroke-linecap="round" stroke-linejoin="round" opacity="0.45" />
<rect x="209" y="390" width="102" height="318" rx="10" ry="10" fill="#eff6ff" stroke="none" stroke-width="0" opacity="0.62"/>
<line x1="260.0" y1="430" x2="260.0" y2="510" stroke="#2563eb" stroke-width="5" stroke-linecap="round" opacity="0.25" />
<rect x="215" y="382" width="90" height="76" rx="8" ry="8" fill="#ffffff" stroke="#2563eb" stroke-width="1.6" filter="url(#softShadow)"/>
<line x1="244.0" y1="404" x2="276.0" y2="404" stroke="#2563eb" stroke-width="1.4" stroke-linecap="round" opacity="1" />
<line x1="260.0" y1="394" x2="260.0" y2="414" stroke="#2563eb" stroke-width="1.4" stroke-linecap="round" opacity="1" />
<circle cx="244.0" cy="404" r="2.6" fill="#2563eb"/>
<circle cx="276.0" cy="404" r="2.6" fill="#2563eb"/>
<circle cx="260.0" cy="394" r="2.6" fill="#2563eb"/>
<circle cx="260.0" cy="414" r="2.6" fill="#2563eb"/>
<text x="260.0" y="428" font-size="13.5" font-weight="700" fill="#2563eb" text-anchor="middle" >Rail 0</text>
<text x="260.0" y="446" font-size="11.5" font-weight="400" fill="#374151" text-anchor="middle" >Leaf 0</text>
<text x="260.0" y="478" font-size="11.5" font-weight="400" fill="#2563eb" text-anchor="middle" >接 NIC0</text>
<line x1="260.0" y1="458" x2="260.0" y2="512" stroke="#2563eb" stroke-width="2.1" stroke-linecap="round" opacity="1" />
<rect x="321" y="390" width="102" height="318" rx="10" ry="10" fill="#f0fdf4" stroke="none" stroke-width="0" opacity="0.62"/>
<line x1="372.0" y1="430" x2="372.0" y2="510" stroke="#16a34a" stroke-width="5" stroke-linecap="round" opacity="0.25" />
<rect x="327" y="382" width="90" height="76" rx="8" ry="8" fill="#ffffff" stroke="#16a34a" stroke-width="1.6" filter="url(#softShadow)"/>
<line x1="356.0" y1="404" x2="388.0" y2="404" stroke="#16a34a" stroke-width="1.4" stroke-linecap="round" opacity="1" />
<line x1="372.0" y1="394" x2="372.0" y2="414" stroke="#16a34a" stroke-width="1.4" stroke-linecap="round" opacity="1" />
<circle cx="356.0" cy="404" r="2.6" fill="#16a34a"/>
<circle cx="388.0" cy="404" r="2.6" fill="#16a34a"/>
<circle cx="372.0" cy="394" r="2.6" fill="#16a34a"/>
<circle cx="372.0" cy="414" r="2.6" fill="#16a34a"/>
<text x="372.0" y="428" font-size="13.5" font-weight="700" fill="#16a34a" text-anchor="middle" >Rail 1</text>
<text x="372.0" y="446" font-size="11.5" font-weight="400" fill="#374151" text-anchor="middle" >Leaf 1</text>
<text x="372.0" y="478" font-size="11.5" font-weight="400" fill="#16a34a" text-anchor="middle" >接 NIC1</text>
<line x1="372.0" y1="458" x2="372.0" y2="512" stroke="#16a34a" stroke-width="2.1" stroke-linecap="round" opacity="1" />
<rect x="433" y="390" width="102" height="318" rx="10" ry="10" fill="#faf5ff" stroke="none" stroke-width="0" opacity="0.62"/>
<line x1="484.0" y1="430" x2="484.0" y2="510" stroke="#9333ea" stroke-width="5" stroke-linecap="round" opacity="0.25" />
<rect x="439" y="382" width="90" height="76" rx="8" ry="8" fill="#ffffff" stroke="#9333ea" stroke-width="1.6" filter="url(#softShadow)"/>
<line x1="468.0" y1="404" x2="500.0" y2="404" stroke="#9333ea" stroke-width="1.4" stroke-linecap="round" opacity="1" />
<line x1="484.0" y1="394" x2="484.0" y2="414" stroke="#9333ea" stroke-width="1.4" stroke-linecap="round" opacity="1" />
<circle cx="468.0" cy="404" r="2.6" fill="#9333ea"/>
<circle cx="500.0" cy="404" r="2.6" fill="#9333ea"/>
<circle cx="484.0" cy="394" r="2.6" fill="#9333ea"/>
<circle cx="484.0" cy="414" r="2.6" fill="#9333ea"/>
<text x="484.0" y="428" font-size="13.5" font-weight="700" fill="#9333ea" text-anchor="middle" >Rail 2</text>
<text x="484.0" y="446" font-size="11.5" font-weight="400" fill="#374151" text-anchor="middle" >Leaf 2</text>
<text x="484.0" y="478" font-size="11.5" font-weight="400" fill="#9333ea" text-anchor="middle" >接 NIC2</text>
<line x1="484.0" y1="458" x2="484.0" y2="512" stroke="#9333ea" stroke-width="2.1" stroke-linecap="round" opacity="1" />
<rect x="545" y="390" width="102" height="318" rx="10" ry="10" fill="#fff7ed" stroke="none" stroke-width="0" opacity="0.62"/>
<line x1="596.0" y1="430" x2="596.0" y2="510" stroke="#ea580c" stroke-width="5" stroke-linecap="round" opacity="0.25" />
<rect x="551" y="382" width="90" height="76" rx="8" ry="8" fill="#ffffff" stroke="#ea580c" stroke-width="1.6" filter="url(#softShadow)"/>
<line x1="580.0" y1="404" x2="612.0" y2="404" stroke="#ea580c" stroke-width="1.4" stroke-linecap="round" opacity="1" />
<line x1="596.0" y1="394" x2="596.0" y2="414" stroke="#ea580c" stroke-width="1.4" stroke-linecap="round" opacity="1" />
<circle cx="580.0" cy="404" r="2.6" fill="#ea580c"/>
<circle cx="612.0" cy="404" r="2.6" fill="#ea580c"/>
<circle cx="596.0" cy="394" r="2.6" fill="#ea580c"/>
<circle cx="596.0" cy="414" r="2.6" fill="#ea580c"/>
<text x="596.0" y="428" font-size="13.5" font-weight="700" fill="#ea580c" text-anchor="middle" >Rail 3</text>
<text x="596.0" y="446" font-size="11.5" font-weight="400" fill="#374151" text-anchor="middle" >Leaf 3</text>
<text x="596.0" y="478" font-size="11.5" font-weight="400" fill="#ea580c" text-anchor="middle" >接 NIC3</text>
<line x1="596.0" y1="458" x2="596.0" y2="512" stroke="#ea580c" stroke-width="2.1" stroke-linecap="round" opacity="1" />
<rect x="657" y="390" width="102" height="318" rx="10" ry="10" fill="#ecfeff" stroke="none" stroke-width="0" opacity="0.62"/>
<line x1="708.0" y1="430" x2="708.0" y2="510" stroke="#0891b2" stroke-width="5" stroke-linecap="round" opacity="0.25" />
<rect x="663" y="382" width="90" height="76" rx="8" ry="8" fill="#ffffff" stroke="#0891b2" stroke-width="1.6" filter="url(#softShadow)"/>
<line x1="692.0" y1="404" x2="724.0" y2="404" stroke="#0891b2" stroke-width="1.4" stroke-linecap="round" opacity="1" />
<line x1="708.0" y1="394" x2="708.0" y2="414" stroke="#0891b2" stroke-width="1.4" stroke-linecap="round" opacity="1" />
<circle cx="692.0" cy="404" r="2.6" fill="#0891b2"/>
<circle cx="724.0" cy="404" r="2.6" fill="#0891b2"/>
<circle cx="708.0" cy="394" r="2.6" fill="#0891b2"/>
<circle cx="708.0" cy="414" r="2.6" fill="#0891b2"/>
<text x="708.0" y="428" font-size="13.5" font-weight="700" fill="#0891b2" text-anchor="middle" >Rail 4</text>
<text x="708.0" y="446" font-size="11.5" font-weight="400" fill="#374151" text-anchor="middle" >Leaf 4</text>
<text x="708.0" y="478" font-size="11.5" font-weight="400" fill="#0891b2" text-anchor="middle" >接 NIC4</text>
<line x1="708.0" y1="458" x2="708.0" y2="512" stroke="#0891b2" stroke-width="2.1" stroke-linecap="round" opacity="1" />
<rect x="769" y="390" width="102" height="318" rx="10" ry="10" fill="#fef2f2" stroke="none" stroke-width="0" opacity="0.62"/>
<line x1="820.0" y1="430" x2="820.0" y2="510" stroke="#dc2626" stroke-width="5" stroke-linecap="round" opacity="0.25" />
<rect x="775" y="382" width="90" height="76" rx="8" ry="8" fill="#ffffff" stroke="#dc2626" stroke-width="1.6" filter="url(#softShadow)"/>
<line x1="804.0" y1="404" x2="836.0" y2="404" stroke="#dc2626" stroke-width="1.4" stroke-linecap="round" opacity="1" />
<line x1="820.0" y1="394" x2="820.0" y2="414" stroke="#dc2626" stroke-width="1.4" stroke-linecap="round" opacity="1" />
<circle cx="804.0" cy="404" r="2.6" fill="#dc2626"/>
<circle cx="836.0" cy="404" r="2.6" fill="#dc2626"/>
<circle cx="820.0" cy="394" r="2.6" fill="#dc2626"/>
<circle cx="820.0" cy="414" r="2.6" fill="#dc2626"/>
<text x="820.0" y="428" font-size="13.5" font-weight="700" fill="#dc2626" text-anchor="middle" >Rail 5</text>
<text x="820.0" y="446" font-size="11.5" font-weight="400" fill="#374151" text-anchor="middle" >Leaf 5</text>
<text x="820.0" y="478" font-size="11.5" font-weight="400" fill="#dc2626" text-anchor="middle" >接 NIC5</text>
<line x1="820.0" y1="458" x2="820.0" y2="512" stroke="#dc2626" stroke-width="2.1" stroke-linecap="round" opacity="1" />
<rect x="881" y="390" width="102" height="318" rx="10" ry="10" fill="#f5f3ff" stroke="none" stroke-width="0" opacity="0.62"/>
<line x1="932.0" y1="430" x2="932.0" y2="510" stroke="#7c3aed" stroke-width="5" stroke-linecap="round" opacity="0.25" />
<rect x="887" y="382" width="90" height="76" rx="8" ry="8" fill="#ffffff" stroke="#7c3aed" stroke-width="1.6" filter="url(#softShadow)"/>
<line x1="916.0" y1="404" x2="948.0" y2="404" stroke="#7c3aed" stroke-width="1.4" stroke-linecap="round" opacity="1" />
<line x1="932.0" y1="394" x2="932.0" y2="414" stroke="#7c3aed" stroke-width="1.4" stroke-linecap="round" opacity="1" />
<circle cx="916.0" cy="404" r="2.6" fill="#7c3aed"/>
<circle cx="948.0" cy="404" r="2.6" fill="#7c3aed"/>
<circle cx="932.0" cy="394" r="2.6" fill="#7c3aed"/>
<circle cx="932.0" cy="414" r="2.6" fill="#7c3aed"/>
<text x="932.0" y="428" font-size="13.5" font-weight="700" fill="#7c3aed" text-anchor="middle" >Rail 6</text>
<text x="932.0" y="446" font-size="11.5" font-weight="400" fill="#374151" text-anchor="middle" >Leaf 6</text>
<text x="932.0" y="478" font-size="11.5" font-weight="400" fill="#7c3aed" text-anchor="middle" >接 NIC6</text>
<line x1="932.0" y1="458" x2="932.0" y2="512" stroke="#7c3aed" stroke-width="2.1" stroke-linecap="round" opacity="1" />
<rect x="993" y="390" width="102" height="318" rx="10" ry="10" fill="#f8fafc" stroke="none" stroke-width="0" opacity="0.62"/>
<line x1="1044.0" y1="430" x2="1044.0" y2="510" stroke="#475569" stroke-width="5" stroke-linecap="round" opacity="0.25" />
<rect x="999" y="382" width="90" height="76" rx="8" ry="8" fill="#ffffff" stroke="#475569" stroke-width="1.6" filter="url(#softShadow)"/>
<line x1="1028.0" y1="404" x2="1060.0" y2="404" stroke="#475569" stroke-width="1.4" stroke-linecap="round" opacity="1" />
<line x1="1044.0" y1="394" x2="1044.0" y2="414" stroke="#475569" stroke-width="1.4" stroke-linecap="round" opacity="1" />
<circle cx="1028.0" cy="404" r="2.6" fill="#475569"/>
<circle cx="1060.0" cy="404" r="2.6" fill="#475569"/>
<circle cx="1044.0" cy="394" r="2.6" fill="#475569"/>
<circle cx="1044.0" cy="414" r="2.6" fill="#475569"/>
<text x="1044.0" y="428" font-size="13.5" font-weight="700" fill="#475569" text-anchor="middle" >Rail 7</text>
<text x="1044.0" y="446" font-size="11.5" font-weight="400" fill="#374151" text-anchor="middle" >Leaf 7</text>
<text x="1044.0" y="478" font-size="11.5" font-weight="400" fill="#475569" text-anchor="middle" >接 NIC7</text>
<line x1="1044.0" y1="458" x2="1044.0" y2="512" stroke="#475569" stroke-width="2.1" stroke-linecap="round" opacity="1" />
<rect x="438" y="231" width="326" height="26" rx="5" ry="5" fill="#ffffff" stroke="#e5e7eb" stroke-width="1" opacity="0.97"/>
<text x="601" y="249" font-size="12" font-weight="400" fill="#475569" text-anchor="middle" >每 Leaf 上行 32 × 400G 到 Spine，目标 1:1 无收敛</text>
<rect x="404" y="488" width="392" height="26" rx="5" ry="5" fill="#ffffff" stroke="#e5e7eb" stroke-width="1" opacity="0.97"/>
<text x="600" y="506" font-size="12" font-weight="400" fill="#475569" text-anchor="middle" >每 Leaf 下行 32 × 400G：连接 32 台服务器的同编号 NIC</text>
<rect x="72" y="520" width="1056" height="184" rx="10" ry="10" fill="#ffffff" stroke="#cbd5e1" stroke-width="1.3" />
<text x="94" y="548" font-size="15" font-weight="700" fill="#111827" text-anchor="start" >32 台 DGX H100 服务器</text>
<text x="94" y="570" font-size="12.2" font-weight="400" fill="#6b7280" text-anchor="start" >每台：8 × H100 GPU + 8 × ConnectX-7 400G NIC；同编号 NIC 纵向进入同一条 Rail。</text>
<text x="260.0" y="592" font-size="11.5" font-weight="700" fill="#2563eb" text-anchor="middle" >NIC0</text>
<line x1="260.0" y1="598" x2="260.0" y2="684" stroke="#2563eb" stroke-width="1.0" stroke-linecap="round" opacity="0.22" />
<text x="372.0" y="592" font-size="11.5" font-weight="700" fill="#16a34a" text-anchor="middle" >NIC1</text>
<line x1="372.0" y1="598" x2="372.0" y2="684" stroke="#16a34a" stroke-width="1.0" stroke-linecap="round" opacity="0.22" />
<text x="484.0" y="592" font-size="11.5" font-weight="700" fill="#9333ea" text-anchor="middle" >NIC2</text>
<line x1="484.0" y1="598" x2="484.0" y2="684" stroke="#9333ea" stroke-width="1.0" stroke-linecap="round" opacity="0.22" />
<text x="596.0" y="592" font-size="11.5" font-weight="700" fill="#ea580c" text-anchor="middle" >NIC3</text>
<line x1="596.0" y1="598" x2="596.0" y2="684" stroke="#ea580c" stroke-width="1.0" stroke-linecap="round" opacity="0.22" />
<text x="708.0" y="592" font-size="11.5" font-weight="700" fill="#0891b2" text-anchor="middle" >NIC4</text>
<line x1="708.0" y1="598" x2="708.0" y2="684" stroke="#0891b2" stroke-width="1.0" stroke-linecap="round" opacity="0.22" />
<text x="820.0" y="592" font-size="11.5" font-weight="700" fill="#dc2626" text-anchor="middle" >NIC5</text>
<line x1="820.0" y1="598" x2="820.0" y2="684" stroke="#dc2626" stroke-width="1.0" stroke-linecap="round" opacity="0.22" />
<text x="932.0" y="592" font-size="11.5" font-weight="700" fill="#7c3aed" text-anchor="middle" >NIC6</text>
<line x1="932.0" y1="598" x2="932.0" y2="684" stroke="#7c3aed" stroke-width="1.0" stroke-linecap="round" opacity="0.22" />
<text x="1044.0" y="592" font-size="11.5" font-weight="700" fill="#475569" text-anchor="middle" >NIC7</text>
<line x1="1044.0" y1="598" x2="1044.0" y2="684" stroke="#475569" stroke-width="1.0" stroke-linecap="round" opacity="0.22" />
<rect x="94" y="596" width="54" height="24" rx="5" ry="5" fill="#ffffff" stroke="#cbd5e1" stroke-width="1" />
<line x1="102" y1="604" x2="140" y2="604" stroke="#e5e7eb" stroke-width="1" stroke-linecap="round" opacity="1" />
<line x1="102" y1="612" x2="140" y2="612" stroke="#e5e7eb" stroke-width="1" stroke-linecap="round" opacity="1" />
<line x1="102" y1="620" x2="140" y2="620" stroke="#e5e7eb" stroke-width="1" stroke-linecap="round" opacity="1" />
<circle cx="138" cy="606" r="2.5" fill="#22c55e"/>
<text x="158" y="612" font-size="12.2" font-weight="700" fill="#334155" text-anchor="start" >DGX01</text>
<rect x="230.0" y="595" width="60" height="22" rx="5" ry="5" fill="#eff6ff" stroke="#2563eb" stroke-width="1.1" />
<text x="260.0" y="610" font-size="10.5" font-weight="700" fill="#2563eb" text-anchor="middle" >N0</text>
<rect x="342.0" y="595" width="60" height="22" rx="5" ry="5" fill="#f0fdf4" stroke="#16a34a" stroke-width="1.1" />
<text x="372.0" y="610" font-size="10.5" font-weight="700" fill="#16a34a" text-anchor="middle" >N1</text>
<rect x="454.0" y="595" width="60" height="22" rx="5" ry="5" fill="#faf5ff" stroke="#9333ea" stroke-width="1.1" />
<text x="484.0" y="610" font-size="10.5" font-weight="700" fill="#9333ea" text-anchor="middle" >N2</text>
<rect x="566.0" y="595" width="60" height="22" rx="5" ry="5" fill="#fff7ed" stroke="#ea580c" stroke-width="1.1" />
<text x="596.0" y="610" font-size="10.5" font-weight="700" fill="#ea580c" text-anchor="middle" >N3</text>
<rect x="678.0" y="595" width="60" height="22" rx="5" ry="5" fill="#ecfeff" stroke="#0891b2" stroke-width="1.1" />
<text x="708.0" y="610" font-size="10.5" font-weight="700" fill="#0891b2" text-anchor="middle" >N4</text>
<rect x="790.0" y="595" width="60" height="22" rx="5" ry="5" fill="#fef2f2" stroke="#dc2626" stroke-width="1.1" />
<text x="820.0" y="610" font-size="10.5" font-weight="700" fill="#dc2626" text-anchor="middle" >N5</text>
<rect x="902.0" y="595" width="60" height="22" rx="5" ry="5" fill="#f5f3ff" stroke="#7c3aed" stroke-width="1.1" />
<text x="932.0" y="610" font-size="10.5" font-weight="700" fill="#7c3aed" text-anchor="middle" >N6</text>
<rect x="1014.0" y="595" width="60" height="22" rx="5" ry="5" fill="#f8fafc" stroke="#475569" stroke-width="1.1" />
<text x="1044.0" y="610" font-size="10.5" font-weight="700" fill="#475569" text-anchor="middle" >N7</text>
<rect x="94" y="626" width="54" height="24" rx="5" ry="5" fill="#ffffff" stroke="#cbd5e1" stroke-width="1" />
<line x1="102" y1="634" x2="140" y2="634" stroke="#e5e7eb" stroke-width="1" stroke-linecap="round" opacity="1" />
<line x1="102" y1="642" x2="140" y2="642" stroke="#e5e7eb" stroke-width="1" stroke-linecap="round" opacity="1" />
<line x1="102" y1="650" x2="140" y2="650" stroke="#e5e7eb" stroke-width="1" stroke-linecap="round" opacity="1" />
<circle cx="138" cy="636" r="2.5" fill="#22c55e"/>
<text x="158" y="642" font-size="12.2" font-weight="700" fill="#334155" text-anchor="start" >DGX02</text>
<rect x="230.0" y="625" width="60" height="22" rx="5" ry="5" fill="#eff6ff" stroke="#2563eb" stroke-width="1.1" />
<text x="260.0" y="640" font-size="10.5" font-weight="700" fill="#2563eb" text-anchor="middle" >N0</text>
<rect x="342.0" y="625" width="60" height="22" rx="5" ry="5" fill="#f0fdf4" stroke="#16a34a" stroke-width="1.1" />
<text x="372.0" y="640" font-size="10.5" font-weight="700" fill="#16a34a" text-anchor="middle" >N1</text>
<rect x="454.0" y="625" width="60" height="22" rx="5" ry="5" fill="#faf5ff" stroke="#9333ea" stroke-width="1.1" />
<text x="484.0" y="640" font-size="10.5" font-weight="700" fill="#9333ea" text-anchor="middle" >N2</text>
<rect x="566.0" y="625" width="60" height="22" rx="5" ry="5" fill="#fff7ed" stroke="#ea580c" stroke-width="1.1" />
<text x="596.0" y="640" font-size="10.5" font-weight="700" fill="#ea580c" text-anchor="middle" >N3</text>
<rect x="678.0" y="625" width="60" height="22" rx="5" ry="5" fill="#ecfeff" stroke="#0891b2" stroke-width="1.1" />
<text x="708.0" y="640" font-size="10.5" font-weight="700" fill="#0891b2" text-anchor="middle" >N4</text>
<rect x="790.0" y="625" width="60" height="22" rx="5" ry="5" fill="#fef2f2" stroke="#dc2626" stroke-width="1.1" />
<text x="820.0" y="640" font-size="10.5" font-weight="700" fill="#dc2626" text-anchor="middle" >N5</text>
<rect x="902.0" y="625" width="60" height="22" rx="5" ry="5" fill="#f5f3ff" stroke="#7c3aed" stroke-width="1.1" />
<text x="932.0" y="640" font-size="10.5" font-weight="700" fill="#7c3aed" text-anchor="middle" >N6</text>
<rect x="1014.0" y="625" width="60" height="22" rx="5" ry="5" fill="#f8fafc" stroke="#475569" stroke-width="1.1" />
<text x="1044.0" y="640" font-size="10.5" font-weight="700" fill="#475569" text-anchor="middle" >N7</text>
<text x="124" y="678" font-size="18" font-weight="700" fill="#94a3b8" text-anchor="middle" >...</text>
<text x="260.0" y="678" font-size="13" font-weight="600" fill="#94a3b8" text-anchor="middle" >...</text>
<text x="372.0" y="678" font-size="13" font-weight="600" fill="#94a3b8" text-anchor="middle" >...</text>
<text x="484.0" y="678" font-size="13" font-weight="600" fill="#94a3b8" text-anchor="middle" >...</text>
<text x="596.0" y="678" font-size="13" font-weight="600" fill="#94a3b8" text-anchor="middle" >...</text>
<text x="708.0" y="678" font-size="13" font-weight="600" fill="#94a3b8" text-anchor="middle" >...</text>
<text x="820.0" y="678" font-size="13" font-weight="600" fill="#94a3b8" text-anchor="middle" >...</text>
<text x="932.0" y="678" font-size="13" font-weight="600" fill="#94a3b8" text-anchor="middle" >...</text>
<text x="1044.0" y="678" font-size="13" font-weight="600" fill="#94a3b8" text-anchor="middle" >...</text>
<rect x="94" y="686" width="54" height="24" rx="5" ry="5" fill="#ffffff" stroke="#cbd5e1" stroke-width="1" />
<line x1="102" y1="694" x2="140" y2="694" stroke="#e5e7eb" stroke-width="1" stroke-linecap="round" opacity="1" />
<line x1="102" y1="702" x2="140" y2="702" stroke="#e5e7eb" stroke-width="1" stroke-linecap="round" opacity="1" />
<line x1="102" y1="710" x2="140" y2="710" stroke="#e5e7eb" stroke-width="1" stroke-linecap="round" opacity="1" />
<circle cx="138" cy="696" r="2.5" fill="#22c55e"/>
<text x="158" y="702" font-size="12.2" font-weight="700" fill="#334155" text-anchor="start" >DGX32</text>
<rect x="230.0" y="685" width="60" height="22" rx="5" ry="5" fill="#eff6ff" stroke="#2563eb" stroke-width="1.1" />
<text x="260.0" y="700" font-size="10.5" font-weight="700" fill="#2563eb" text-anchor="middle" >N0</text>
<rect x="342.0" y="685" width="60" height="22" rx="5" ry="5" fill="#f0fdf4" stroke="#16a34a" stroke-width="1.1" />
<text x="372.0" y="700" font-size="10.5" font-weight="700" fill="#16a34a" text-anchor="middle" >N1</text>
<rect x="454.0" y="685" width="60" height="22" rx="5" ry="5" fill="#faf5ff" stroke="#9333ea" stroke-width="1.1" />
<text x="484.0" y="700" font-size="10.5" font-weight="700" fill="#9333ea" text-anchor="middle" >N2</text>
<rect x="566.0" y="685" width="60" height="22" rx="5" ry="5" fill="#fff7ed" stroke="#ea580c" stroke-width="1.1" />
<text x="596.0" y="700" font-size="10.5" font-weight="700" fill="#ea580c" text-anchor="middle" >N3</text>
<rect x="678.0" y="685" width="60" height="22" rx="5" ry="5" fill="#ecfeff" stroke="#0891b2" stroke-width="1.1" />
<text x="708.0" y="700" font-size="10.5" font-weight="700" fill="#0891b2" text-anchor="middle" >N4</text>
<rect x="790.0" y="685" width="60" height="22" rx="5" ry="5" fill="#fef2f2" stroke="#dc2626" stroke-width="1.1" />
<text x="820.0" y="700" font-size="10.5" font-weight="700" fill="#dc2626" text-anchor="middle" >N5</text>
<rect x="902.0" y="685" width="60" height="22" rx="5" ry="5" fill="#f5f3ff" stroke="#7c3aed" stroke-width="1.1" />
<text x="932.0" y="700" font-size="10.5" font-weight="700" fill="#7c3aed" text-anchor="middle" >N6</text>
<rect x="1014.0" y="685" width="60" height="22" rx="5" ry="5" fill="#f8fafc" stroke="#475569" stroke-width="1.1" />
<text x="1044.0" y="700" font-size="10.5" font-weight="700" fill="#475569" text-anchor="middle" >N7</text>
<rect x="72" y="720" width="1056" height="30" rx="8" ry="8" fill="#ffffff" stroke="#e5e7eb" stroke-width="1" />
<text x="92" y="740" font-size="12.5" font-weight="400" fill="#374151" text-anchor="start" >容量口径：32 台 × 8 NIC × 400G = 102.4 Tbps host-facing 带宽/方向；32 台 × 8 GPU = 256 GPU。</text>
<rect x="842" y="330" width="286" height="30" rx="6" ry="6" fill="#ffffff" stroke="#e5e7eb" stroke-width="1" />
<line x1="860" y1="345" x2="898" y2="345" stroke="#64748b" stroke-width="1.4" stroke-linecap="round" opacity="0.6" />
<text x="908" y="349" font-size="11.5" font-weight="400" fill="#6b7280" text-anchor="start" >Leaf 上联 Spine</text>
<line x1="1014" y1="345" x2="1052" y2="345" stroke="#2563eb" stroke-width="3" stroke-linecap="round" opacity="0.35" />
<text x="1062" y="349" font-size="11.5" font-weight="400" fill="#6b7280" text-anchor="start" >Rail 下行束</text>
<text x="46" y="798" font-size="11.8" font-weight="400" fill="#6b7280" text-anchor="start" >读图方式：竖着看一列就是一条 Rail；横着看一行就是一台 DGX H100 的 8 个训练 NIC。</text>
</svg>